# xmcd
#
# Track frame offsets: 
#        150
#        12132
#        25411
#        38238
#        53120
#        64664
#        78186
#        90965
#        109002
#        126148
#        140456
#        161102
#        175427
#        191459
#        207880
#        224134
#
# Disc length: 3222 seconds
#
# Revision: 0
# Processed by: cddbd v1.5.2PL0 Copyright (c) Steve Scherf et al.
# Submitted via: ExactAudioCopy v0.95a4
#
DISCID=db0c9410
DTITLE=Michael Jerome Browne - Can't Keep A Good Man Down
DYEAR=2016
DGENRE=Blues
TTITLE0=Four Years, No Rain
TTITLE1=Rising Rive Blues
TTITLE2=Country Breakdown
TTITLE3=You Missed A Good Man
TTITLE4=You Can't Keep A Good Man Down
TTITLE5=Pay Day
TTITLE6=Married Woman
TTITLE7=Morning Prayer
TTITLE8=At It Again
TTITLE9=Summer Shoes On (Song For Neil Stonechild)
TTITLE10=Death Don't Have No Mercy
TTITLE11=The Coo Coo
TTITLE12=Blacktop
TTITLE13=Right Now Blues
TTITLE14=If Memphis Don't Kill Me
TTITLE15=Gambling Blues
EXTD=
EXTT0=
EXTT1=
EXTT2=
EXTT3=
EXTT4=
EXTT5=
EXTT6=
EXTT7=
EXTT8=
EXTT9=
EXTT10=
EXTT11=
EXTT12=
EXTT13=
EXTT14=
EXTT15=
PLAYORDER=
